<svg width="215" height="300" viewBox="0 0 215 300" fill="none" xmlns="http://www.w3.org/2000/svg">
<path d="M0.5 19C0.5 8.78273 8.78273 0.5 19 0.5H177C197.711 0.5 214.5 17.2893 214.5 38V281C214.5 291.217 206.217 299.5 196 299.5H31C14.1553 299.5 0.5 285.845 0.5 269V19Z" stroke="#B1B1B1"/>
<rect x="0.5" y="0.5" width="205" height="288" rx="18.5" fill="#D9D9D9" stroke="#B1B1B1"/>
<rect x="26.5" y="19.5" width="153" height="72" rx="19.5" fill="white" stroke="#B1B1B1"/>
<rect x="26.5" y="136.5" width="153" height="29" rx="9.5" fill="#ECECEC" stroke="#B1B1B1"/>
<rect x="26.5" y="191.5" width="153" height="29" rx="9.5" fill="#ECECEC" stroke="#B1B1B1"/>
<path d="M99.6304 50.264V53.336H82.6064V50.264H99.6304ZM99.6304 57.528V60.6H82.6064V57.528H99.6304ZM113.98 72.952C111.889 70.9467 110.278 68.3973 109.148 65.304C108.038 62.2107 107.484 58.8933 107.484 55.352C107.484 51.7253 108.081 48.3013 109.276 45.08C110.492 41.8587 112.273 39.2027 114.62 37.112H118.396V37.464C115.942 39.7253 114.097 42.4347 112.86 45.592C111.622 48.7493 111.004 52.0027 111.004 55.352C111.004 58.5733 111.58 61.688 112.732 64.696C113.884 67.704 115.558 70.3387 117.756 72.6V72.952H113.98Z" fill="#D9D9D9"/>
<path d="M99.6304 50.264H100.63V49.264H99.6304V50.264ZM99.6304 53.336V54.336H100.63V53.336H99.6304ZM82.6064 53.336H81.6064V54.336H82.6064V53.336ZM82.6064 50.264V49.264H81.6064V50.264H82.6064ZM99.6304 57.528H100.63V56.528H99.6304V57.528ZM99.6304 60.6V61.6H100.63V60.6H99.6304ZM82.6064 60.6H81.6064V61.6H82.6064V60.6ZM82.6064 57.528V56.528H81.6064V57.528H82.6064ZM98.6304 50.264V53.336H100.63V50.264H98.6304ZM99.6304 52.336H82.6064V54.336H99.6304V52.336ZM83.6064 53.336V50.264H81.6064V53.336H83.6064ZM82.6064 51.264H99.6304V49.264H82.6064V51.264ZM98.6304 57.528V60.6H100.63V57.528H98.6304ZM99.6304 59.6H82.6064V61.6H99.6304V59.6ZM83.6064 60.6V57.528H81.6064V60.6H83.6064ZM82.6064 58.528H99.6304V56.528H82.6064V58.528ZM113.98 72.952L113.287 73.6737L113.578 73.952H113.98V72.952ZM109.148 65.304L108.206 65.6416L108.208 65.6473L109.148 65.304ZM109.276 45.08L108.34 44.7268L108.338 44.7323L109.276 45.08ZM114.62 37.112V36.112H114.239L113.954 36.3653L114.62 37.112ZM118.396 37.112H119.396V36.112H118.396V37.112ZM118.396 37.464L119.073 38.1993L119.396 37.9023V37.464H118.396ZM112.86 45.592L113.791 45.9569L112.86 45.592ZM112.732 64.696L113.665 64.3384L112.732 64.696ZM117.756 72.6H118.756V72.1942L118.473 71.9031L117.756 72.6ZM117.756 72.952V73.952H118.756V72.952H117.756ZM114.672 72.2303C112.706 70.3442 111.172 67.9304 110.087 64.9607L108.208 65.6473C109.384 68.8642 111.072 71.5491 113.287 73.6737L114.672 72.2303ZM110.089 64.9664C109.021 61.9895 108.484 58.7872 108.484 55.352H106.484C106.484 58.9994 107.055 62.4318 108.206 65.6416L110.089 64.9664ZM108.484 55.352C108.484 51.8374 109.062 48.5317 110.213 45.4277L108.338 44.7323C107.1 48.071 106.484 51.6133 106.484 55.352H108.484ZM110.211 45.4332C111.376 42.3482 113.07 39.8319 115.285 37.8587L113.954 36.3653C111.476 38.5734 109.608 41.3692 108.34 44.7268L110.211 45.4332ZM114.62 38.112H118.396V36.112H114.62V38.112ZM117.396 37.112V37.464H119.396V37.112H117.396ZM117.718 36.7287C115.151 39.0945 113.22 41.9311 111.929 45.2271L113.791 45.9569C114.974 42.9382 116.733 40.3562 119.073 38.1993L117.718 36.7287ZM111.929 45.2271C110.646 48.4992 110.004 51.8762 110.004 55.352H112.004C112.004 52.1291 112.598 48.9994 113.791 45.9569L111.929 45.2271ZM110.004 55.352C110.004 58.6956 110.602 61.9315 111.798 65.0536L113.665 64.3384C112.557 61.4445 112.004 58.4511 112.004 55.352H110.004ZM111.798 65.0536C112.997 68.1854 114.745 70.9362 117.038 73.2969L118.473 71.9031C116.372 69.7411 114.77 67.2226 113.665 64.3384L111.798 65.0536ZM116.756 72.6V72.952H118.756V72.6H116.756ZM117.756 71.952H113.98V73.952H117.756V71.952Z" fill="#B1B1B1"/>
</svg>
